<svg width="1000" height="500" viewBox="0 0 1000 500" fill="none" xmlns="http://www.w3.org/2000/svg">
<rect width="1000" height="500" rx="50" fill="#003566"/>
<path d="M161 322.557V280.638L281.318 136H344.357L222.119 280.958H345.637V228.479H395.237V280.958H448.996V322.557H395.237V364.477H345.637V322.557H161Z" fill="white"/>
<path d="M502.36 364.477V177.919H434.521V136.32H551.959V364.477H502.36Z" fill="white"/>
<path d="M584.044 364.477V322.877H760.041C768.148 322.877 774.228 320.637 778.281 316.157C782.334 311.464 784.361 305.064 784.361 296.958C784.361 288.638 782.334 282.131 778.281 277.438C774.228 272.745 768.148 270.398 760.041 270.398H614.123V229.119H759.721C776.148 229.119 784.361 220.479 784.361 203.199C784.361 186.133 776.148 177.599 759.721 177.599H584.044V136H769.321C791.507 136 808.68 141.547 820.84 152.64C833.213 163.52 839.4 178.773 839.4 198.399C839.4 209.066 837.373 219.199 833.32 228.799C829.267 238.185 822.547 245.118 813.16 249.598C822.547 254.292 829.267 261.225 833.32 270.398C837.373 279.358 839.4 289.278 839.4 300.158C839.4 319.571 833.213 335.144 820.84 346.877C808.68 358.61 791.507 364.477 769.321 364.477H584.044Z" fill="white"/>
</svg>
